HIERARCHY
ROOT Hips
{
	OFFSET 0.000000 0.000000 0.000000
	CHANNELS 6 Xposition Yposition Zposition Xrotation Yrotation Zrotation
	JOINT LeftUpLeg_virtual
	{
		OFFSET 0.000000 0.000000 0.000000
		CHANNELS 3 Xrotation Yrotation Zrotation
		JOINT LeftUpLeg
		{
			OFFSET 11.394100 -6.187798 -0.413800
			CHANNELS 3 Xrotation Yrotation Zrotation
			JOINT LeftLeg
			{
				OFFSET 0.430247 -32.302673 3.732800
				CHANNELS 3 Xrotation Yrotation Zrotation
				JOINT LeftFoot
				{
					OFFSET -0.430247 -48.264931 -6.423300
					CHANNELS 3 Xrotation Yrotation Zrotation
					JOINT LeftToeBase
					{
						OFFSET 4.230900 -16.068199 23.438400
						CHANNELS 3 Xrotation Yrotation Zrotation
						JOINT LeftToe_End
						{
							OFFSET 4.510700 0.695400 19.974600
							CHANNELS 3 Xrotation Yrotation Zrotation
							End Site
							{
								OFFSET 0 0 0
							}
						}
					}
				}
			}
		}
	}
	JOINT RightUpLeg_virtual
	{
		OFFSET 0.000000 0.000000 0.000000
		CHANNELS 3 Xrotation Yrotation Zrotation
		JOINT RightUpLeg
		{
			OFFSET -11.333700 -6.187798 -0.413800
			CHANNELS 3 Xrotation Yrotation Zrotation
			JOINT RightLeg
			{
				OFFSET -0.430392 -32.302628 3.733000
				CHANNELS 3 Xrotation Yrotation Zrotation
				JOINT RightFoot
				{
					OFFSET 0.430392 -48.264973 -6.423500
					CHANNELS 3 Xrotation Yrotation Zrotation
					JOINT RightToeBase
					{
						OFFSET -4.230900 -16.068199 23.438400
						CHANNELS 3 Xrotation Yrotation Zrotation
						JOINT RightToe_End
						{
							OFFSET -4.510700 0.695400 19.974600
							CHANNELS 3 Xrotation Yrotation Zrotation
							End Site
							{
								OFFSET 0 0 0
							}
						}
					}
				}
			}
		}
	}
	JOINT Spine_virtual
	{
		OFFSET 0.000000 0.000000 0.000000
		CHANNELS 3 Xrotation Yrotation Zrotation
		JOINT Spine
		{
			OFFSET -0.002400 12.777504 0.315300
			CHANNELS 3 Xrotation Yrotation Zrotation
			JOINT Spine1
			{
				OFFSET -0.002067 5.816869 0.032633
				CHANNELS 3 Xrotation Yrotation Zrotation
				JOINT Spine1_split
				{
					OFFSET -0.002067 5.816869 0.032633
					CHANNELS 3 Xrotation Yrotation Zrotation
					JOINT Spine2
					{
						OFFSET -0.002067 5.816869 0.032633
						CHANNELS 3 Xrotation Yrotation Zrotation
						JOINT Neck_virtual
						{
							OFFSET 0.000000 0.000000 0.000000
							CHANNELS 3 Xrotation Yrotation Zrotation
							JOINT Neck
							{
								OFFSET -0.003700 21.199493 -0.826900
								CHANNELS 3 Xrotation Yrotation Zrotation
								JOINT Head
								{
									OFFSET 0.000000 20.442200 4.834800
									CHANNELS 3 Xrotation Yrotation Zrotation
									JOINT HeadTop_End
									{
										OFFSET 0.000000 34.668396 4.968400
										CHANNELS 3 Xrotation Yrotation Zrotation
										End Site
										{
											OFFSET 0 0 0
										}
									}
								}
							}
						}
						JOINT LeftShoulder_virtual
						{
							OFFSET 0.000000 0.000000 0.000000
							CHANNELS 3 Xrotation Yrotation Zrotation
							JOINT LeftShoulder
							{
								OFFSET 3.288150 8.794197 -1.372250
								CHANNELS 3 Xrotation Yrotation Zrotation
								JOINT LeftShoulder_split
								{
									OFFSET 3.288150 8.794197 -1.372250
									CHANNELS 3 Xrotation Yrotation Zrotation
									JOINT LeftArm
									{
										OFFSET 11.953299 -2.279007 -0.146200
										CHANNELS 3 Xrotation Yrotation Zrotation
										JOINT LeftForeArm
										{
											OFFSET 18.448900 0.000000 0.000000
											CHANNELS 3 Xrotation Yrotation Zrotation
											JOINT LeftHand
											{
												OFFSET 29.527798 0.000000 0.000000
												CHANNELS 3 Xrotation Yrotation Zrotation
												End Site
												{
													OFFSET 0 0 0
												}
											}
										}
									}
								}
							}
						}
						JOINT RightShoulder_virtual
						{
							OFFSET 0.000000 0.000000 0.000000
							CHANNELS 3 Xrotation Yrotation Zrotation
							JOINT RightShoulder
							{
								OFFSET -3.249400 8.794197 -1.372250
								CHANNELS 3 Xrotation Yrotation Zrotation
								JOINT RightShoulder_split
								{
									OFFSET -3.249400 8.794197 -1.372250
									CHANNELS 3 Xrotation Yrotation Zrotation
									JOINT RightArm
									{
										OFFSET -11.953299 -2.279007 -0.146200
										CHANNELS 3 Xrotation Yrotation Zrotation
										JOINT RightForeArm
										{
											OFFSET -18.448900 0.000000 0.000000
											CHANNELS 3 Xrotation Yrotation Zrotation
											JOINT RightHand
											{
												OFFSET -29.527802 0.000000 0.000000
												CHANNELS 3 Xrotation Yrotation Zrotation
												End Site
												{
													OFFSET 0 0 0
												}
											}
										}
									}
								}
							}
						}
					}
				}
			}
		}
	}
}
MOTION
Frames: 6
Frame Time: 0.03333333
9.221568 95.907814 -5.339035 0.000000 0.000000 0.000000 10.355375 -31.583758 -16.217033 -34.424430 -4.361670 22.892716 40.652145 4.270780 9.478263 -10.197213 28.126296 -14.707463 -2.089681 0.458569 0.212633 0.000000 0.000000 0.000000 12.436014 -29.744890 -16.885157 -36.080778 0.153472 18.299846 12.208985 0.352555 0.987575 15.137424 12.481494 -7.074476 -3.687747 1.694199 -0.226362 0.000000 0.000000 0.000000 8.099732 -32.921522 -17.373126 17.301144 -5.069559 13.021698 14.094357 -0.550333 10.483003 1.552229 -1.171986 0.619507 0.000000 0.000000 0.000000 12.847604 -0.617212 9.419185 -9.194342 -6.013376 3.076226 36.708500 -14.434259 30.353046 0.000000 0.000000 0.000000 14.338980 -1.218331 9.637943 2.383714 -20.063025 -11.586244 1.018882 -1.366852 -0.416047 -35.641915 -26.706859 -56.902094 -1.008182 -14.796111 -1.359263 0.000000 0.000000 0.000000 12.258329 -1.029879 9.939693 2.391579 6.570635 11.290183 -4.553562 2.592467 -0.483769 0.264084 40.641070 26.834743 1.802991 22.792710 1.305679 0.000000 0.000000 0.000000 
9.088087 95.895615 -5.325623 0.000000 0.000000 0.000000 10.324053 -31.290244 -16.205454 -34.650530 -4.278772 22.957229 40.727479 4.180354 9.513887 -10.058300 27.837701 -14.726730 -2.027148 0.463372 0.179839 0.000000 0.000000 0.000000 12.407294 -29.365719 -16.873567 -36.138592 0.071002 18.300828 12.364693 0.294196 0.973677 15.055465 12.345593 -7.175036 -3.651777 1.643137 -0.201638 0.000000 0.000000 0.000000 8.062276 -32.565522 -17.364912 17.194460 -5.139481 13.155863 14.004515 -0.611209 10.538870 1.535746 -1.182756 0.615187 0.000000 0.000000 0.000000 12.759656 -0.654896 9.470637 -9.077520 -5.960216 3.110342 36.870748 -14.580214 30.373083 0.000000 0.000000 0.000000 14.226676 -1.252373 9.672945 2.361159 -20.084523 -11.700167 0.976356 -1.402648 -0.385369 -35.331363 -27.039206 -57.177064 -1.099864 -14.977746 -1.388176 0.000000 0.000000 0.000000 12.172569 -1.065422 9.981603 2.525235 6.791258 10.759630 -4.454342 2.663528 -0.549910 0.614487 40.398557 27.101776 1.779505 23.292875 1.227718 0.000000 0.000000 0.000000 
8.943181 95.907608 -5.304886 0.000000 0.000000 0.000000 10.278344 -30.908928 -16.184408 -34.838616 -4.228338 22.986196 40.734808 4.082943 9.561641 -9.888508 27.512287 -14.758692 -1.941549 0.465951 0.126047 0.000000 0.000000 0.000000 12.367791 -28.898834 -16.849028 -36.150774 0.014556 18.299532 12.491049 0.227371 0.944640 14.956326 12.169689 -7.293651 -3.571207 1.579913 -0.138583 0.000000 0.000000 0.000000 8.007221 -32.150763 -17.345849 17.079843 -5.200136 13.294990 13.909875 -0.669372 10.602746 1.513829 -1.199795 0.620945 0.000000 0.000000 0.000000 12.670885 -0.692076 9.531415 -8.970910 -5.922409 3.148007 37.035232 -14.741590 30.379718 0.000000 0.000000 0.000000 14.109670 -1.281942 9.716611 2.343464 -20.091567 -11.806282 0.944409 -1.438319 -0.364332 -34.927296 -27.315132 -57.444022 -1.199399 -15.167142 -1.419947 0.000000 0.000000 0.000000 12.084421 -1.100072 10.029247 2.669709 6.976190 10.224462 -4.351496 2.716227 -0.617019 0.967187 40.203050 27.368443 1.761441 23.807285 1.158592 0.000000 0.000000 0.000000 
8.789326 95.936989 -5.275326 0.000000 0.000000 0.000000 10.216477 -30.456490 -16.166885 -34.974844 -4.217535 22.991107 40.694083 3.990105 9.613110 -9.698528 27.177499 -14.820064 -1.850777 0.466799 0.058600 0.000000 0.000000 0.000000 12.310569 -28.353189 -16.828560 -36.110199 -0.014662 18.299941 12.579073 0.143519 0.904296 14.824408 11.947054 -7.454489 -3.404531 1.508416 -0.046258 0.000000 0.000000 0.000000 7.941727 -31.683796 -17.323742 16.954978 -5.254162 13.444001 13.809916 -0.725333 10.674390 1.486029 -1.221239 0.612376 0.000000 0.000000 0.000000 12.580924 -0.729851 9.602027 -8.878165 -5.900858 3.185983 37.209925 -14.911621 30.372560 0.000000 0.000000 0.000000 13.987842 -1.307983 9.769796 2.333283 -20.079141 -11.893446 0.922985 -1.472579 -0.358588 -34.442516 -27.542014 -57.699218 -1.302405 -15.358365 -1.452158 0.000000 0.000000 0.000000 11.995429 -1.134765 10.082545 2.824398 7.121773 9.679000 -4.260668 2.756496 -0.671983 1.309626 40.050723 27.636778 1.747289 24.328686 1.102172 0.000000 0.000000 0.000000 
8.632749 95.974693 -5.230312 0.000000 0.000000 0.000000 10.130398 -29.959826 -16.167806 -35.055867 -4.249772 22.980373 40.637273 3.916010 9.661461 -9.527569 26.867990 -14.896725 -1.756499 0.463972 -0.011408 0.000000 0.000000 0.000000 12.236431 -27.744519 -16.828343 -36.017596 -0.023390 18.300881 12.654218 0.045415 0.861662 14.687555 11.683191 -7.643021 -3.198133 1.433720 0.051075 0.000000 0.000000 0.000000 7.867621 -31.172410 -17.308717 16.822348 -5.306501 13.611454 13.702419 -0.782143 10.753050 1.444736 -1.258793 0.604833 0.000000 0.000000 0.000000 12.488279 -0.770004 9.682408 -8.797174 -5.897599 3.219154 37.401747 -15.082606 30.357244 0.000000 0.000000 0.000000 13.860948 -1.333418 9.831194 2.332596 -20.041874 -11.956799 0.906050 -1.497935 -0.376536 -33.893974 -27.725160 -57.939805 -1.399771 -15.549370 -1.480168 0.000000 0.000000 0.000000 11.907300 -1.170393 10.142290 2.989838 7.234292 9.121822 -4.181960 2.801300 -0.708994 1.612207 39.922951 27.935856 1.734878 24.827483 1.060490 0.000000 0.000000 0.000000 
8.475482 96.010452 -5.172119 0.000000 0.000000 0.000000 10.020565 -29.432337 -16.199365 -35.067929 -4.304511 22.968196 40.564620 3.878002 9.697380 -9.439391 26.599299 -14.952969 -1.658745 0.457801 -0.072876 0.000000 0.000000 0.000000 12.135791 -27.102489 -16.864005 -35.879585 -0.028535 18.299593 12.722655 -0.063104 0.823410 14.588792 11.388193 -7.822144 -3.029282 1.355534 0.121667 0.000000 0.000000 0.000000 7.789966 -30.623153 -17.312130 16.686743 -5.362441 13.803287 13.588263 -0.842313 10.837360 1.417816 -1.305299 0.594348 0.000000 0.000000 0.000000 12.390909 -0.814697 9.772019 -8.726642 -5.910906 3.248413 37.615231 -15.243367 30.340400 0.000000 0.000000 0.000000 13.728598 -1.362247 9.898955 2.340930 -19.980059 -11.995568 0.907042 -1.524157 -0.404768 -33.304149 -27.871734 -58.159887 -1.479226 -15.719098 -1.500172 0.000000 0.000000 0.000000 11.820419 -1.207971 10.209368 3.163503 7.321377 8.561063 -4.120455 2.858216 -0.723264 1.841129 39.791733 28.301010 1.720383 25.291767 1.032306 0.000000 0.000000 0.000000 
